<?xml version="1.0" standalone="no"?>
<!DOCTYPE svg PUBLIC "-//W3C//DTD SVG 20010904//EN"
 "http://www.w3.org/TR/2001/REC-SVG-20010904/DTD/svg10.dtd">
<svg version="1.0" xmlns="http://www.w3.org/2000/svg"
 width="358.000000pt" height="417.000000pt" viewBox="0 0 358.000000 417.000000"
 preserveAspectRatio="xMidYMid meet">

<g transform="translate(0.000000,417.000000) scale(0.100000,-0.100000)"
fill="#000000" stroke="none">
<path d="M0 2085 l0 -2085 1790 0 1790 0 0 2085 0 2085 -1790 0 -1790 0 0
-2085z m1795 1870 c352 -91 641 -466 735 -953 24 -123 41 -355 33 -435 l-6
-56 -134 -133 c-74 -73 -138 -142 -143 -153 -27 -71 -16 -64 124 75 93 92 146
138 146 127 0 -10 -7 -48 -15 -85 l-16 -68 -249 -249 c-216 -215 -250 -254
-250 -280 0 -27 19 -11 236 205 l235 235 -26 -60 c-30 -68 -66 -132 -107 -189
l-28 -39 72 -39 c309 -168 536 -435 622 -731 37 -126 51 -276 36 -366 -32
-191 -181 -348 -372 -393 -41 -10 -284 -13 -1043 -13 -915 0 -995 1 -1054 18
-134 37 -246 128 -307 251 -48 99 -60 181 -45 313 32 273 153 511 361 706 124
117 342 256 378 242 11 -4 36 15 79 57 68 68 67 66 53 88 -8 12 -22 2 -79 -54
l-69 -69 -28 42 -27 42 75 77 c49 51 73 83 71 95 -3 9 -7 17 -11 17 -4 0 -41
-34 -84 -77 l-77 -76 -22 47 -23 46 87 88 c81 81 98 108 80 126 -4 3 -46 -33
-95 -81 -48 -48 -89 -85 -91 -82 -2 2 -11 25 -20 50 l-15 46 92 92 c51 51 99
91 106 89 11 -2 16 15 22 67 24 201 67 445 79 445 14 0 61 -78 80 -132 l17
-51 26 50 c32 64 103 127 167 148 28 10 53 14 56 11 3 -3 7 -25 10 -48 5 -65
33 -110 83 -135 23 -12 46 -20 50 -18 4 2 10 25 13 49 20 146 135 250 306 277
93 14 101 11 94 -40 -8 -59 15 -164 47 -215 29 -44 91 -89 143 -101 30 -8 32
-4 16 27 -25 46 2 176 33 166 20 -7 48 -73 63 -149 8 -41 18 -154 21 -253 l7
-179 20 39 c10 22 59 80 108 130 66 66 88 95 83 107 -3 9 -9 17 -12 17 -4 0
-30 -23 -58 -51 l-53 -52 25 84 c14 46 30 92 36 103 22 41 -55 160 -191 297
-153 153 -341 283 -466 322 -97 30 -234 29 -325 -2 -206 -72 -600 -410 -600
-515 0 -23 -9 -41 -31 -62 -31 -29 -51 -61 -70 -111 -9 -24 -2 -20 43 25 30
28 56 52 60 52 3 0 9 -23 12 -52 l7 -51 -78 -79 c-93 -93 -91 -95 -92 87 -4
626 332 1194 768 1300 77 18 224 18 296 0z m-855 -1417 l15 -40 -90 -89 c-57
-55 -92 -84 -96 -76 -4 7 -10 30 -13 51 -7 39 -6 40 75 122 46 46 85 81 88 78
3 -3 12 -24 21 -46z"/>
<path d="M1117 1862 c-31 -32 -57 -63 -57 -69 0 -30 32 -16 86 38 52 52 57 61
43 74 -13 13 -21 9 -72 -43z"/>
<path d="M1212 1757 c-29 -29 -52 -55 -52 -59 0 -3 8 -9 17 -12 23 -9 103 70
103 101 0 13 -4 23 -8 23 -4 0 -31 -24 -60 -53z"/>
</g>
</svg>
